<svg xmlns="http://www.w3.org/2000/svg" viewBox="0 0 200 200" width="200" height="200">
  <defs>
    <linearGradient id="g1" x1="0%" y1="0%" x2="100%" y2="100%">
      <stop offset="0%" style="stop-color:#8a2be2"/>
      <stop offset="100%" style="stop-color:#00b4ff"/>
    </linearGradient>
    <linearGradient id="g2" x1="0%" y1="0%" x2="0%" y2="100%">
      <stop offset="0%" style="stop-color:#00b4ff"/>
      <stop offset="100%" style="stop-color:#8a2be2"/>
    </linearGradient>
  </defs>
  <!-- Moat/water ring -->
  <ellipse cx="100" cy="105" rx="85" ry="28" fill="none" stroke="url(#g2)" stroke-width="3" opacity="0.4"/>
  <ellipse cx="100" cy="108" rx="78" ry="22" fill="none" stroke="url(#g2)" stroke-width="2" opacity="0.25"/>
  <!-- Shield outer -->
  <path d="M100 20 L160 55 L160 105 Q160 145 100 175 Q40 145 40 105 L40 55 Z" fill="none" stroke="url(#g1)" stroke-width="4" stroke-linejoin="round"/>
  <!-- Shield inner fill -->
  <path d="M100 28 L152 58 L152 103 Q152 139 100 166 Q48 139 48 103 L48 58 Z" fill="rgba(138,43,226,0.08)"/>
  <!-- M letter -->
  <text x="100" y="115" text-anchor="middle" font-family="Orbitron,sans-serif" font-size="56" font-weight="700" fill="url(#g1)">M</text>
  <!-- Castle turrets (top of shield) -->
  <rect x="62" y="30" width="8" height="12" rx="1" fill="url(#g1)" opacity="0.6"/>
  <rect x="76" y="25" width="8" height="17" rx="1" fill="url(#g1)" opacity="0.7"/>
  <rect x="116" y="25" width="8" height="17" rx="1" fill="url(#g1)" opacity="0.7"/>
  <rect x="130" y="30" width="8" height="12" rx="1" fill="url(#g1)" opacity="0.6"/>
  <!-- Bottom text -->
  <text x="100" y="195" text-anchor="middle" font-family="Orbitron,sans-serif" font-size="14" font-weight="600" fill="#6b5b8a" letter-spacing="4">MOAT WAF</text>
</svg>
